<svg width="24" height="27" viewBox="0 0 24 27" fill="none" xmlns="http://www.w3.org/2000/svg">
<path fill-rule="evenodd" clip-rule="evenodd" d="M0 19.5C0 19.0398 0.383756 18.6667 0.857143 18.6667H21.0735L15.6796 13.4226C15.3449 13.0972 15.3449 12.5695 15.6796 12.2441C16.0144 11.9186 16.5571 11.9186 16.8918 12.2441L23.7489 18.9107C24.0837 19.2362 24.0837 19.7638 23.7489 20.0893L16.8918 26.7559C16.5571 27.0814 16.0144 27.0814 15.6796 26.7559C15.3449 26.4305 15.3449 25.9028 15.6796 25.5774L21.0735 20.3333H0.857143C0.383756 20.3333 0 19.9602 0 19.5Z" fill="#D9D9D9"/>
<path fill-rule="evenodd" clip-rule="evenodd" d="M24 7.5C24 7.96024 23.6162 8.33333 23.1429 8.33333L2.92647 8.33333L8.32038 13.5774C8.65511 13.9028 8.65511 14.4305 8.32038 14.7559C7.98564 15.0814 7.44293 15.0814 7.10819 14.7559L0.251051 8.08926C-0.0836853 7.76382 -0.0836852 7.23618 0.251051 6.91074L7.10819 0.244077C7.44293 -0.08136 7.98564 -0.0813599 8.32038 0.244077C8.65511 0.569514 8.65511 1.09715 8.32038 1.42259L2.92647 6.66667L23.1429 6.66667C23.6162 6.66667 24 7.03976 24 7.5Z" fill="#D9D9D9"/>
</svg>
