<svg width="21" height="28" viewBox="0 0 21 28" fill="none" xmlns="http://www.w3.org/2000/svg">
<path d="M6.125 12.25C5.64175 12.25 5.25 12.6418 5.25 13.125C5.25 13.6082 5.64175 14 6.125 14H14.875C15.3582 14 15.75 13.6082 15.75 13.125C15.75 12.6418 15.3582 12.25 14.875 12.25H6.125Z" fill="#D9D9D9"/>
<path d="M5.25 16.625C5.25 16.1418 5.64175 15.75 6.125 15.75H14.875C15.3582 15.75 15.75 16.1418 15.75 16.625C15.75 17.1082 15.3582 17.5 14.875 17.5H6.125C5.64175 17.5 5.25 17.1082 5.25 16.625Z" fill="#D9D9D9"/>
<path d="M5.25 20.125C5.25 19.6418 5.64175 19.25 6.125 19.25H9.625C10.1082 19.25 10.5 19.6418 10.5 20.125C10.5 20.6082 10.1082 21 9.625 21H6.125C5.64175 21 5.25 20.6082 5.25 20.125Z" fill="#D9D9D9"/>
<path d="M13.125 0H3.5C1.567 0 0 1.567 0 3.5V24.5C0 26.433 1.567 28 3.5 28H17.5C19.433 28 21 26.433 21 24.5V7.875L13.125 0ZM13.125 1.75V5.25C13.125 6.69975 14.3003 7.875 15.75 7.875H19.25V24.5C19.25 25.4665 18.4665 26.25 17.5 26.25H3.5C2.5335 26.25 1.75 25.4665 1.75 24.5V3.5C1.75 2.5335 2.5335 1.75 3.5 1.75H13.125Z" fill="#D9D9D9"/>
</svg>
