<svg width="11" height="10" viewBox="0 0 11 10" fill="none" xmlns="http://www.w3.org/2000/svg">
<path d="M2.29133 9.28172C2.24271 9.55889 2.51619 9.77584 2.75771 9.6517L5.50098 8.24173L8.24424 9.6517C8.48577 9.77584 8.75925 9.55889 8.71062 9.28172L8.19204 6.32579L10.3935 4.22789C10.5992 4.03183 10.4927 3.67335 10.2171 3.6342L7.15557 3.19928L5.7905 0.495191C5.66753 0.251603 5.33442 0.251603 5.21146 0.495191L3.84638 3.19928L0.784834 3.6342C0.509216 3.67335 0.402716 4.03183 0.608454 4.22789L2.80991 6.32579L2.29133 9.28172ZM5.35671 7.55163L3.05311 8.73562L3.48702 6.26232C3.50748 6.14573 3.46902 6.02634 3.38531 5.94656L1.56853 4.21525L4.10122 3.85546C4.20592 3.84059 4.29734 3.77372 4.34673 3.67588L5.50098 1.38942L6.65522 3.67588C6.70461 3.77372 6.79603 3.84059 6.90073 3.85546L9.43342 4.21525L7.61665 5.94656C7.53294 6.02634 7.49448 6.14573 7.51493 6.26232L7.94884 8.73562L5.64524 7.55163C5.55425 7.50486 5.4477 7.50486 5.35671 7.55163Z" fill="white"/>
</svg>
